<?xml version="1.0" encoding="utf-8"?>
<!-- Generator: Adobe Illustrator 23.0.2, SVG Export Plug-In . SVG Version: 6.00 Build 0)  -->
<svg version="1.1" id="Слой_1" xmlns="http://www.w3.org/2000/svg" xmlns:xlink="http://www.w3.org/1999/xlink" x="0px" y="0px"
	 viewBox="0 0 18 12" style="enable-background:new 0 0 18 12;" xml:space="preserve">
<style type="text/css">
	.st0{fill:#3D4473;}
	.st1{fill:#FFFFFF;}
	.st2{fill:#C44D45;}
</style>
<path id="path3408" class="st0" d="M0,0v12h18V0L0,0z"/>
<g id="g3504" transform="matrix(0.99923007,0,0,0.99796116,-41.704693,34.67408)">
	<path id="path3410" class="st1" d="M41.74-34.74l0,1.36l6.99,4.66l-6.99,4.66l0,1.34l2.01,0l6.99-4.66l7,4.66l2.01,0l0-1.33
		l-7-4.67l7-4.66l0-1.36l-2,0l-7.01,4.68l-7.02-4.68L41.74-34.74z"/>
	<g id="g3475" transform="matrix(1.000467,0,0,1.0025461,-90.083492,-1.0167386)">
		<path id="path3473" class="st2" d="M140.75-27.63l1.34-0.01l7.67,5.12l-0.01,0.86L140.75-27.63L140.75-27.63z M148.41-33.64l1.3,0
			l-8.95,6.01l0-0.9L148.41-33.64L148.41-33.64z M135.58-30.22l-3.82-2.55v-0.87l9,6.01l-1.33,0L135.58-30.22L135.58-30.22z
			 M140.75-27.63v0.87l-7.65,5.11l-1.34,0L140.75-27.63L140.75-27.63z"/>
	</g>
</g>
<g id="g3457" transform="matrix(0.99923007,0,0,0.99796116,-71.704693,6.7005857)">
	<g id="g3500">
		<path id="path3414" class="st1" d="M79.27-6.71v4.01h-7.51V1.3h7.51v4.01h3V1.3h7.51v-4.01h-7.51v-4.01L79.27-6.71L79.27-6.71z"/>
		<path id="path3416" class="st2" d="M79.87-6.71v4.81h-8.11v2.4h8.11v4.81h1.8V0.5h8.11v-2.4h-8.11v-4.81
			C81.67-6.71,79.87-6.71,79.87-6.71z"/>
	</g>
</g>
</svg>
